<svg width="89" height="82" viewBox="0 0 89 82" fill="none" xmlns="http://www.w3.org/2000/svg">
<path d="M65.3746 60.7437L71.0642 65.7437H20.8056L16.0642 60.7437H65.3746Z" fill="#FDD23C"/>
<g filter="url(#filter0_f_14_2)">
<path d="M27.0642 65.7437H25.5642L22.0642 60.2437L56.5642 60.7437L36.5642 64.7437L35.0642 64.2437L29.0642 64.7437L27.0642 65.7437Z" fill="black" fill-opacity="0.34"/>
</g>
<path d="M25.1746 43.0245C24.402 42.2351 24.4155 40.9689 25.2049 40.1962L50.2174 15.7141C51.0068 14.9415 52.2731 14.9551 53.0457 15.7444L69.8334 32.8959C70.6061 33.6853 70.5925 34.9515 69.8031 35.7241L44.7906 60.2063C44.0012 60.9789 42.735 60.9653 41.9624 60.1759L25.1746 43.0245Z" fill="#FFCF33"/>
<path d="M61.4586 20.7486L52.3809 15.5043C51.6028 15.0548 50.6204 15.1794 49.9792 15.809L24.9892 40.3447C24.2018 41.1177 24.1893 42.3823 24.9611 43.1708L25.64 43.8644C25.9023 44.1324 26.0821 44.47 26.1582 44.8371C26.4725 46.3539 28.3397 46.9231 29.4466 45.8396L46.6556 28.9955C47.0335 28.6257 47.5423 28.4205 48.071 28.4249L50.081 28.4414L51.8931 28.4608C52.098 28.463 52.302 28.4337 52.498 28.3739L54.3945 27.7955C54.5074 27.761 54.6171 27.7166 54.7222 27.6628L61.3694 24.2607C62.78 23.5387 62.8308 21.5412 61.4586 20.7486Z" fill="#F0BA00"/>
<path d="M35.5265 55.4943L32.6341 52.5393C31.8614 51.7499 31.875 50.4836 32.6644 49.711L51.4446 31.329C52.2339 30.5564 53.5002 30.5699 54.2728 31.3593L57.1653 34.3144C57.9379 35.1038 57.9243 36.37 57.1349 37.1427L38.3547 55.5246C37.5654 56.2973 36.2991 56.2837 35.5265 55.4943Z" fill="#F0BA00"/>
<path d="M24.7678 40.6241L50.5747 15.3644C51.1668 14.7849 52.1165 14.7951 52.6959 15.3871L70.1806 33.2506C70.7608 33.8434 70.7497 34.7946 70.1559 35.3737L44.3021 60.5856C43.7098 61.1632 42.7616 61.1522 42.1829 60.561L24.7451 42.7453C24.1656 42.1533 24.1758 41.2036 24.7678 40.6241Z" stroke="black"/>
<path d="M53.1981 15.1854L56.0264 15.2158L70.4259 29.9272L70.3956 32.7555L53.1981 15.1854Z" fill="#2C2825" stroke="black"/>
<path d="M21.8721 49.0556L35.8619 63.3485L27.7907 62.8527L22.1948 57.1355L21.8721 49.0556Z" fill="#969594"/>
<path d="M21.5265 48.6942L22.3085 46.5296L38.3967 62.9664L36.2158 63.7018L21.5265 48.6942Z" fill="#605D5C"/>
<path d="M25.167 43.7316L41.2552 60.1684L38.3967 62.9663L22.3085 46.5295L25.167 43.7316Z" fill="#605D5C"/>
<path d="M21.5642 59.2437L22.5445 57.4929L27.441 62.4954L25.6619 63.537L26.0316 64.6644L24.5035 64.6708L20.3524 60.4298L20.4357 58.9473L21.5642 59.2437Z" fill="#C4C4C4"/>
<path d="M20.7854 59.3046L25.6818 64.3071" stroke="#E7E7E7"/>
<path d="M23.4412 45.7228L24.6912 44.7228C25.1405 44.3634 25.8069 44.5097 26.0642 45.0244C26.369 45.634 26.2916 46.3652 25.8658 46.8975L25.1152 47.8357C24.7532 48.2882 24.5049 48.821 24.3913 49.3893L24.2407 50.1419C24.1236 50.7277 24.0844 51.3264 24.1241 51.9224L24.5055 57.6435C24.5428 58.2033 24.3367 58.752 23.94 59.1487L23.1454 59.9433C22.8244 60.2642 22.3041 60.2642 21.9831 59.9433C21.733 59.6931 21.6709 59.311 21.8292 58.9946L22.2888 58.0754C22.4691 57.7147 22.5491 57.3122 22.5204 56.91L22.0642 50.5244V49.1828C22.0642 48.421 22.2416 47.6697 22.5823 46.9884L22.8483 46.4562C22.9906 46.1717 23.1929 45.9215 23.4412 45.7228Z" fill="#C4C4C4" fill-opacity="0.33"/>
<path d="M22.4952 46.3468L25.167 43.7316L41.2553 60.1683L38.5834 62.7836L36.5131 63.4107L27.3805 62.5546L26.0018 63.2044L25.8746 64.7282L24.5725 64.6033L20.4373 60.3786L20.2786 59.0111L21.8498 58.9624L22.4841 57.5521L21.8239 48.4032L22.4952 46.3468Z" stroke="black"/>
<path d="M21.9284 49.0005L35.9182 63.2934" stroke="black"/>
<path d="M22.5445 57.4929L27.4409 62.4954" stroke="black"/>
<path d="M22.3084 46.5295L38.3967 62.9663" stroke="black"/>
<defs>
<filter id="filter0_f_14_2" x="21.0642" y="59.2437" width="36.5" height="7.5" filterUnits="userSpaceOnUse" color-interpolation-filters="sRGB">
<feFlood flood-opacity="0" result="BackgroundImageFix"/>
<feBlend mode="normal" in="SourceGraphic" in2="BackgroundImageFix" result="shape"/>
<feGaussianBlur stdDeviation="0.5" result="effect1_foregroundBlur_14_2"/>
</filter>
</defs>
</svg>
